<svg xmlns="http://www.w3.org/2000/svg" xmlns:xlink="http://www.w3.org/1999/xlink"><symbol id="icon-eye"><path d="M8.299 12l-1.963-.51.8-2.898a11.254 11.254 0 01-3.29-1.846L1.66 8.87.22 7.475l2.19-2.123A10.663 10.663 0 010 .354L2 0c.771 4.143 4.507 7.286 9 7.286 4.492 0 8.229-3.143 9-7.286l2 .353a10.662 10.662 0 01-2.409 5l2.188 2.122-1.438 1.395-2.188-2.124a11.254 11.254 0 01-3.29 1.846l.8 2.898-1.962.51-.8-2.898a11.6 11.6 0 01-3.801 0L8.299 12z" fill="#1F1E25"/></symbol><symbol id="icon-fb"><path d="M6 9h2l1-3H6V4l2-1h1V0a26 26 0 00-2 0C4 0 3 1 3 4v2H0v3h3v7h3V9z" fill="currentColor"/></symbol><symbol id="icon-inst"><path d="M8 0a56 56 0 015 0 4 4 0 012 1l1 2v2a58 58 0 010 8 4 4 0 01-1 2 4 4 0 01-2 1h-2a58 58 0 01-8 0 4 4 0 01-2-1 4 4 0 01-1-2v-2a58 58 0 010-8l1-2 2-1h5zm0 4a4 4 0 100 8 4 4 0 000-8zm5 0a1 1 0 10-2 0 1 1 0 002 0zM8 6a2 2 0 110 4 2 2 0 010-4z" fill="currentColor"/></symbol><symbol id="icon-login"><path d="M2.222 14.3h2.222v5.5h13.334V2.2H4.444v5.5H2.222V1.1c0-.292.117-.572.326-.778.208-.206.49-.322.785-.322H18.89c.295 0 .577.116.786.322.208.206.325.486.325.778v19.8c0 .292-.117.572-.325.778a1.117 1.117 0 01-.786.322H3.333c-.294 0-.577-.116-.785-.322a1.095 1.095 0 01-.326-.778v-6.6zM8.89 9.9V6.6l5.555 4.4-5.555 4.4v-3.3H0V9.9h8.889z" fill="currentColor"/></symbol><symbol id="icon-phone"><path d="M8.837 0H1.163C.523 0 0 .486 0 1.08v13.84C0 15.514.523 16 1.163 16h7.674c.64 0 1.163-.486 1.163-1.08V1.08C10 .487 9.477 0 8.837 0zM3.772.779h2.456c.077 0 .14.058.14.131 0 .072-.063.13-.14.13H3.772c-.077 0-.14-.058-.14-.13 0-.073.063-.131.14-.131zM5 15.459c-.321 0-.581-.241-.581-.54 0-.3.26-.54.581-.54.321 0 .581.24.581.54 0 .299-.26.54-.581.54zM9.19 14H.81V1.714h8.38V14z" fill="currentColor"/></symbol><symbol id="icon-tel"><path d="M16 11.928v3.143a.888.888 0 01-.828.887 14.3 14.3 0 01-.95.041C6.366 16 0 9.632 0 1.778c0-.246.013-.563.04-.951A.889.889 0 01.929 0H4.07a.444.444 0 01.443.4c.02.204.039.367.056.49a12.356 12.356 0 001.074 3.557c.085.178.03.39-.13.504L3.594 6.32a11.596 11.596 0 006.084 6.084l1.368-1.915a.41.41 0 01.51-.132 12.325 12.325 0 004.044 1.128.444.444 0 01.399.442z" fill="currentColor"/></symbol><symbol id="icon-tw"><path d="M16 2h-2a3 3 0 002-2 7 7 0 01-3 1 3 3 0 00-5 3 9 9 0 01-7-3 3 3 0 001 4 3 3 0 01-1 0 3 3 0 002 3H2a3 3 0 003 2 7 7 0 01-5 2 9 9 0 005 1 9 9 0 009-10 7 7 0 002-1z" fill="currentColor"/></symbol><symbol id="icon-youtube"><path d="M16 2v9l-2 2H8 2l-2-2V7 2l2-2h12l2 2zM6 9l5-2-5-3v5z" fill="currentColor"/></symbol></svg>